# xmcd CD database file
#
# Track frame offsets:
#	150
#	29798
#	63818
#	90060
#	130522
#	156897
#	190908
#	218608
#	263421
#	293395
#	319888
#
# Disc length: 4406 seconds
#
# Revision: 2
# Processed by: cddbd v1.5.2PL0 Copyright (c) Steve Scherf et al.
# Submitted via: CDex 1.51
#
DISCID=8711340b
DTITLE=Bhudaza - Bo-Maphefane
DYEAR=2004
DGENRE=Jazz
TTITLE0=Lekhokhoma
TTITLE1=Tjontjobina
TTITLE2=Bo Maphefane
TTITLE3=Khera
TTITLE4=E Thata Nthoena
TTITLE5=Meetlo
TTITLE6=Glory Halleluja
TTITLE7=Nomali
TTITLE8=Mountain Top
TTITLE9=Hard Times
TTITLE10=Ha e luma (Reprise) SeSotho Spiritual
EXTD=Bhudaza-Bo-Maphefane YEAR: 2004
EXTT0=
EXTT1=
EXTT2=
EXTT3=
EXTT4=
EXTT5=
EXTT6=
EXTT7=
EXTT8=
EXTT9=
EXTT10=
PLAYORDER=
